<svg width="440" height="160" xmlns="http://www.w3.org/2000/svg" xmlns:svg="http://www.w3.org/2000/svg">
 <g>
  <title>Layer 1</title>
  <g id="layer1">
   <path d="m17.14064,12.17187l15,0c2.77,0 5,2.23 5,5l0,15c0,2.77 -2.23,5 -5,5l-15,0c-2.77,0 -5,-2.23 -5,-5l0,-15c0,-2.77 2.23,-5 5,-5z" id="rect16294" stroke-miterlimit="4" stroke-linecap="square" stroke-width="1.5" stroke="#000000" fill="none"/>
   <path d="m45.14064,12.17187l15,0c2.77,0 5,2.23 5,5l0,15c0,2.77 -2.23,5 -5,5l-15,0c-2.77,0 -5,-2.23 -5,-5l0,-15c0,-2.77 2.23,-5 5,-5z" id="rect16296" stroke-miterlimit="4" stroke-linecap="square" stroke-width="1.5" stroke="#000000" fill="none"/>
   <path d="m73.14065,12.17187l15,0c2.77,0 5,2.23 5,5l0,15c0,2.77 -2.23,5 -5,5l-15,0c-2.77,0 -5,-2.23 -5,-5l0,-15c0,-2.77 2.23,-5 5,-5z" id="rect16298" stroke-miterlimit="4" stroke-linecap="square" stroke-width="1.5" stroke="#000000" fill="none"/>
   <path d="m101.14065,12.17187l15,0c2.77,0 5,2.23 5,5l0,15c0,2.77 -2.23,5 -5,5l-15,0c-2.77,0 -5,-2.23 -5,-5l0,-15c0,-2.77 2.23,-5 5,-5z" id="rect16300" stroke-miterlimit="4" stroke-linecap="square" stroke-width="1.5" stroke="#000000" fill="none"/>
   <path d="m129.14065,12.17187l15,0c2.77,0 5,2.23 5,5l0,15c0,2.77 -2.23,5 -5,5l-15,0c-2.77,0 -5,-2.23 -5,-5l0,-15c0,-2.77 2.23,-5 5,-5z" id="rect16302" stroke-miterlimit="4" stroke-linecap="square" stroke-width="1.5" stroke="#000000" fill="none"/>
   <path d="m157.14065,12.17187l15,0c2.77,0 5,2.23 5,5l0,15c0,2.77 -2.23,5 -5,5l-15,0c-2.77,0 -5,-2.23 -5,-5l0,-15c0,-2.77 2.23,-5 5,-5z" id="rect16304" stroke-miterlimit="4" stroke-linecap="square" stroke-width="1.5" stroke="#000000" fill="none"/>
   <path d="m185.14065,12.17187l15,0c2.77,0 5,2.23 5,5l0,15c0,2.77 -2.23,5 -5,5l-15,0c-2.77,0 -5,-2.23 -5,-5l0,-15c0,-2.77 2.23,-5 5,-5z" id="rect16306" stroke-miterlimit="4" stroke-linecap="square" stroke-width="1.5" stroke="#000000" fill="none"/>
   <path d="m213.14065,12.17187l15,0c2.77,0 5,2.23 5,5l0,15c0,2.77 -2.23,5 -5,5l-15,0c-2.77,0 -5,-2.23 -5,-5l0,-15c0,-2.77 2.23,-5 5,-5z" id="rect16308" stroke-miterlimit="4" stroke-linecap="square" stroke-width="1.5" stroke="#000000" fill="none"/>
   <path d="m241.14065,12.17187l15,0c2.77,0 5,2.23 5,5l0,15c0,2.77 -2.23,5 -5,5l-15,0c-2.77,0 -5,-2.23 -5,-5l0,-15c0,-2.77 2.23,-5 5,-5z" id="rect16310" stroke-miterlimit="4" stroke-linecap="square" stroke-width="1.5" stroke="#000000" fill="none"/>
   <path d="m269.14065,12.17187l15,0c2.77,0 5,2.23 5,5l0,15c0,2.77 -2.23,5 -5,5l-15,0c-2.77,0 -5,-2.23 -5,-5l0,-15c0,-2.77 2.23,-5 5,-5z" id="rect16312" stroke-miterlimit="4" stroke-linecap="square" stroke-width="1.5" stroke="#000000" fill="none"/>
   <path d="m297.14065,12.17187l15,0c2.77,0 5,2.23 5,5l0,15c0,2.77 -2.23,5 -5,5l-15,0c-2.77,0 -5,-2.23 -5,-5l0,-15c0,-2.77 2.23,-5 5,-5z" id="rect16314" stroke-miterlimit="4" stroke-linecap="square" stroke-width="1.5" stroke="#000000" fill="none"/>
   <path d="m325.45706,12.17187l15,0c2.77,0 5,2.23 5,5l0,15c0,2.77 -2.23,5 -5,5l-15,0c-2.77,0 -5,-2.23 -5,-5l0,-15c0,-2.77 2.23,-5 5,-5z" id="rect16316" stroke-miterlimit="4" stroke-linecap="square" stroke-width="1.5" stroke="#000000" fill="none"/>
   <path d="m353.14065,12.17187l15,0c2.77,0 5,2.23 5,5l0,15c0,2.77 -2.23,5 -5,5l-15,0c-2.77,0 -5,-2.23 -5,-5l0,-15c0,-2.77 2.23,-5 5,-5z" id="rect16318" stroke-miterlimit="4" stroke-linecap="square" stroke-width="1.5" stroke="#000000" fill="none"/>
   <path d="m381.14065,12.17187l43,0c2.77,0 5,2.23 5,5l0,15c0,2.77 -2.23,5 -5,5l-43,0c-2.77,0 -5,-2.23 -5,-5l0,-15c0,-2.77 2.23,-5 5,-5z" id="rect16320" stroke-miterlimit="4" stroke-linecap="square" stroke-width="1.5" stroke="#000000" fill="none"/>
   <path d="m17.14064,40.17187l29,0c2.77,0 5,2.23 5,5l0,15c0,2.77 -2.23,5 -5,5l-29,0c-2.77,0 -5,-2.23 -5,-5l0,-15c0,-2.77 2.23,-5 5,-5z" id="rect16322" stroke-miterlimit="4" stroke-linecap="square" stroke-width="1.5" stroke="#000000" fill="none"/>
   <path d="m59.14064,40.17187l15,0c2.77,0 5,2.23 5,5l0,15c0,2.77 -2.23,5 -5,5l-15,0c-2.77,0 -5,-2.23 -5,-5l0,-15c0,-2.77 2.23,-5 5,-5z" id="rect16324" stroke-miterlimit="4" stroke-linecap="square" stroke-width="1.5" stroke="#000000" fill="none"/>
   <path d="m87.14065,40.17187l15,0c2.77,0 5,2.23 5,5l0,15c0,2.77 -2.23,5 -5,5l-15,0c-2.77,0 -5,-2.23 -5,-5l0,-15c0,-2.77 2.23,-5 5,-5z" id="rect16326" stroke-miterlimit="4" stroke-linecap="square" stroke-width="1.5" stroke="#000000" fill="none"/>
   <path d="m115.14065,40.17187l15,0c2.77,0 5,2.23 5,5l0,15c0,2.77 -2.23,5 -5,5l-15,0c-2.77,0 -5,-2.23 -5,-5l0,-15c0,-2.77 2.23,-5 5,-5z" id="rect16328" stroke-miterlimit="4" stroke-linecap="square" stroke-width="1.5" stroke="#000000" fill="none"/>
   <path d="m143.14065,40.17187l15,0c2.77,0 5,2.23 5,5l0,15c0,2.77 -2.23,5 -5,5l-15,0c-2.77,0 -5,-2.23 -5,-5l0,-15c0,-2.77 2.23,-5 5,-5z" id="rect16330" stroke-miterlimit="4" stroke-linecap="square" stroke-width="1.5" stroke="#000000" fill="none"/>
   <path d="m171.14065,40.17187l15,0c2.77,0 5,2.23 5,5l0,15c0,2.77 -2.23,5 -5,5l-15,0c-2.77,0 -5,-2.23 -5,-5l0,-15c0,-2.77 2.23,-5 5,-5z" id="rect16332" stroke-miterlimit="4" stroke-linecap="square" stroke-width="1.5" stroke="#000000" fill="none"/>
   <path d="m199.14065,40.17187l15,0c2.77,0 5,2.23 5,5l0,15c0,2.77 -2.23,5 -5,5l-15,0c-2.77,0 -5,-2.23 -5,-5l0,-15c0,-2.77 2.23,-5 5,-5z" id="rect16334" stroke-miterlimit="4" stroke-linecap="square" stroke-width="1.5" stroke="#000000" fill="none"/>
   <path d="m227.14065,40.17187l15,0c2.77,0 5,2.23 5,5l0,15c0,2.77 -2.23,5 -5,5l-15,0c-2.77,0 -5,-2.23 -5,-5l0,-15c0,-2.77 2.23,-5 5,-5z" id="rect16336" stroke-miterlimit="4" stroke-linecap="square" stroke-width="1.5" stroke="#000000" fill="none"/>
   <path d="m255.14065,40.17187l15,0c2.77,0 5,2.23 5,5l0,15c0,2.77 -2.23,5 -5,5l-15,0c-2.77,0 -5,-2.23 -5,-5l0,-15c0,-2.77 2.23,-5 5,-5z" id="rect16338" stroke-miterlimit="4" stroke-linecap="square" stroke-width="1.5" stroke="#000000" fill="none"/>
   <path d="m283.14065,40.17187l15,0c2.77,0 5,2.23 5,5l0,15c0,2.77 -2.23,5 -5,5l-15,0c-2.77,0 -5,-2.23 -5,-5l0,-15c0,-2.77 2.23,-5 5,-5z" id="rect16340" stroke-miterlimit="4" stroke-linecap="square" stroke-width="1.5" stroke="#000000" fill="none"/>
   <path d="m311.14065,40.17187l15,0c2.77,0 5,2.23 5,5l0,15c0,2.77 -2.23,5 -5,5l-15,0c-2.77,0 -5,-2.23 -5,-5l0,-15c0,-2.77 2.23,-5 5,-5z" id="rect16342" stroke-miterlimit="4" stroke-linecap="square" stroke-width="1.5" stroke="#000000" fill="none"/>
   <path d="m339.14065,40.17187l15,0c2.77,0 5,2.23 5,5l0,15c0,2.77 -2.23,5 -5,5l-15,0c-2.77,0 -5,-2.23 -5,-5l0,-15c0,-2.77 2.23,-5 5,-5z" id="rect16344" stroke-miterlimit="4" stroke-linecap="square" stroke-width="1.5" stroke="#000000" fill="none"/>
   <path d="m367.14065,40.17187l15,0c2.77,0 5,2.23 5,5l0,15c0,2.77 -2.23,5 -5,5l-15,0c-2.77,0 -5,-2.23 -5,-5l0,-15c0,-2.77 2.23,-5 5,-5z" id="rect16346" stroke-miterlimit="4" stroke-linecap="square" stroke-width="1.5" stroke="#000000" fill="none"/>
   <path d="m395.14065,40.17187l29,0c2.77,0 5,2.23 5,5l0,15c0,2.77 -2.23,5 -5,5l-29,0c-2.77,0 -5,-2.23 -5,-5l0,-15c0,-2.77 2.23,-5 5,-5z" id="rect16348" stroke-miterlimit="4" stroke-linecap="square" stroke-width="1.5" stroke="#000000" fill="none"/>
   <path d="m17.14064,68.17187l36,0c2.77,0 5,2.23 5,5l0,15c0,2.77 -2.23,5 -5,5l-36,0c-2.77,0 -5,-2.23 -5,-5l0,-15c0,-2.77 2.23,-5 5,-5z" id="rect16350" stroke-miterlimit="4" stroke-linecap="square" stroke-width="1.5" stroke="#000000" fill="none"/>
   <path d="m66.14065,68.17187l15,0c2.77,0 5,2.23 5,5l0,15c0,2.77 -2.23,5 -5,5l-15,0c-2.77,0 -5,-2.23 -5,-5l0,-15c0,-2.77 2.23,-5 5,-5z" id="rect16352" stroke-miterlimit="4" stroke-linecap="square" stroke-width="1.5" stroke="#000000" fill="none"/>
   <path d="m94.14065,68.17187l15,0c2.77,0 5,2.23 5,5l0,15c0,2.77 -2.23,5 -5,5l-15,0c-2.77,0 -5,-2.23 -5,-5l0,-15c0,-2.77 2.23,-5 5,-5z" id="rect16354" stroke-miterlimit="4" stroke-linecap="square" stroke-width="1.5" stroke="#000000" fill="none"/>
   <path d="m122.14065,68.17187l15,0c2.77,0 5,2.23 5,5l0,15c0,2.77 -2.23,5 -5,5l-15,0c-2.77,0 -5,-2.23 -5,-5l0,-15c0,-2.77 2.23,-5 5,-5z" id="rect16356" stroke-miterlimit="4" stroke-linecap="square" stroke-width="1.5" stroke="#000000" fill="none"/>
   <path d="m150.14065,68.17187l15,0c2.77,0 5,2.23 5,5l0,15c0,2.77 -2.23,5 -5,5l-15,0c-2.77,0 -5,-2.23 -5,-5l0,-15c0,-2.77 2.23,-5 5,-5z" id="rect16358" stroke-miterlimit="4" stroke-linecap="square" stroke-width="1.5" stroke="#000000" fill="none"/>
   <path d="m178.14065,68.17187l15,0c2.77,0 5,2.23 5,5l0,15c0,2.77 -2.23,5 -5,5l-15,0c-2.77,0 -5,-2.23 -5,-5l0,-15c0,-2.77 2.23,-5 5,-5z" id="rect16360" stroke-miterlimit="4" stroke-linecap="square" stroke-width="1.5" stroke="#000000" fill="none"/>
   <path d="m206.14065,68.17187l15,0c2.77,0 5,2.23 5,5l0,15c0,2.77 -2.23,5 -5,5l-15,0c-2.77,0 -5,-2.23 -5,-5l0,-15c0,-2.77 2.23,-5 5,-5z" id="rect16362" stroke-miterlimit="4" stroke-linecap="square" stroke-width="1.5" stroke="#000000" fill="none"/>
   <path d="m234.14065,68.17187l15,0c2.77,0 5,2.23 5,5l0,15c0,2.77 -2.23,5 -5,5l-15,0c-2.77,0 -5,-2.23 -5,-5l0,-15c0,-2.77 2.23,-5 5,-5z" id="rect16364" stroke-miterlimit="4" stroke-linecap="square" stroke-width="1.5" stroke="#000000" fill="none"/>
   <path d="m262.14065,68.17187l15,0c2.77,0 5,2.23 5,5l0,15c0,2.77 -2.23,5 -5,5l-15,0c-2.77,0 -5,-2.23 -5,-5l0,-15c0,-2.77 2.23,-5 5,-5z" id="rect16366" stroke-miterlimit="4" stroke-linecap="square" stroke-width="1.5" stroke="#000000" fill="none"/>
   <path d="m290.14065,68.17187l15,0c2.77,0 5,2.23 5,5l0,15c0,2.77 -2.23,5 -5,5l-15,0c-2.77,0 -5,-2.23 -5,-5l0,-15c0,-2.77 2.23,-5 5,-5z" id="rect16368" stroke-miterlimit="4" stroke-linecap="square" stroke-width="1.5" stroke="#000000" fill="none"/>
   <path d="m318.14065,68.17187l15,0c2.77,0 5,2.23 5,5l0,15c0,2.77 -2.23,5 -5,5l-15,0c-2.77,0 -5,-2.23 -5,-5l0,-15c0,-2.77 2.23,-5 5,-5z" id="rect16370" stroke-miterlimit="4" stroke-linecap="square" stroke-width="1.5" stroke="#000000" fill="none"/>
   <path d="m346.14065,68.17187l15,0c2.77,0 5,2.23 5,5l0,15c0,2.77 -2.23,5 -5,5l-15,0c-2.77,0 -5,-2.23 -5,-5l0,-15c0,-2.77 2.23,-5 5,-5z" id="rect16372" stroke-miterlimit="4" stroke-linecap="square" stroke-width="1.5" stroke="#000000" fill="none"/>
   <path d="m374.14065,68.17187l50,0c2.77,0 5,2.23 5,5l0,15c0,2.77 -2.23,5 -5,5l-50,0c-2.77,0 -5,-2.23 -5,-5l0,-15c0,-2.77 2.23,-5 5,-5z" id="rect16374" stroke-miterlimit="4" stroke-linecap="square" stroke-width="1.5" stroke="#000000" fill="none"/>
   <path d="m16.71877,96.17187l49,0c2.77,0 5,2.23 5,5l0,15c0,2.77 -2.23,5 -5,5l-49,0c-2.77,0 -5,-2.23 -5,-5l0,-15c0,-2.77 2.23,-5 5,-5z" id="rect16376" stroke-miterlimit="4" stroke-linecap="square" stroke-width="1.5" stroke="#000000" fill="none"/>
   <path d="m79.14065,96.17187l15,0c2.77,0 5,2.23 5,5l0,15c0,2.77 -2.23,5 -5,5l-15,0c-2.77,0 -5,-2.23 -5,-5l0,-15c0,-2.77 2.23,-5 5,-5z" id="rect16378" stroke-miterlimit="4" stroke-linecap="square" stroke-width="1.5" stroke="#000000" fill="none"/>
   <path d="m107.14065,96.17187l15,0c2.77,0 5,2.23 5,5l0,15c0,2.77 -2.23,5 -5,5l-15,0c-2.77,0 -5,-2.23 -5,-5l0,-15c0,-2.77 2.23,-5 5,-5z" id="rect16380" stroke-miterlimit="4" stroke-linecap="square" stroke-width="1.5" stroke="#000000" fill="none"/>
   <path d="m135.14065,96.17187l15,0c2.77,0 5,2.23 5,5l0,15c0,2.77 -2.23,5 -5,5l-15,0c-2.77,0 -5,-2.23 -5,-5l0,-15c0,-2.77 2.23,-5 5,-5z" id="rect16382" stroke-miterlimit="4" stroke-linecap="square" stroke-width="1.5" stroke="#000000" fill="none"/>
   <path d="m163.14065,96.17187l15,0c2.77,0 5,2.23 5,5l0,15c0,2.77 -2.23,5 -5,5l-15,0c-2.77,0 -5,-2.23 -5,-5l0,-15c0,-2.77 2.23,-5 5,-5z" id="rect16384" stroke-miterlimit="4" stroke-linecap="square" stroke-width="1.5" stroke="#000000" fill="none"/>
   <path d="m191.14065,96.17187l15,0c2.77,0 5,2.23 5,5l0,15c0,2.77 -2.23,5 -5,5l-15,0c-2.77,0 -5,-2.23 -5,-5l0,-15c0,-2.77 2.23,-5 5,-5z" id="rect16386" stroke-miterlimit="4" stroke-linecap="square" stroke-width="1.5" stroke="#000000" fill="none"/>
   <path d="m219.14065,96.17187l15,0c2.77,0 5,2.23 5,5l0,15c0,2.77 -2.23,5 -5,5l-15,0c-2.77,0 -5,-2.23 -5,-5l0,-15c0,-2.77 2.23,-5 5,-5z" id="rect16388" stroke-miterlimit="4" stroke-linecap="square" stroke-width="1.5" stroke="#000000" fill="none"/>
   <path d="m247.14065,96.17187l15,0c2.77,0 5,2.23 5,5l0,15c0,2.77 -2.23,5 -5,5l-15,0c-2.77,0 -5,-2.23 -5,-5l0,-15c0,-2.77 2.23,-5 5,-5z" id="rect16390" stroke-miterlimit="4" stroke-linecap="square" stroke-width="1.5" stroke="#000000" fill="none"/>
   <path d="m275.14065,96.17187l15,0c2.77,0 5,2.23 5,5l0,15c0,2.77 -2.23,5 -5,5l-15,0c-2.77,0 -5,-2.23 -5,-5l0,-15c0,-2.77 2.23,-5 5,-5z" id="rect16392" stroke-miterlimit="4" stroke-linecap="square" stroke-width="1.5" stroke="#000000" fill="none"/>
   <path d="m303.14065,96.17187l15,0c2.77,0 5,2.23 5,5l0,15c0,2.77 -2.23,5 -5,5l-15,0c-2.77,0 -5,-2.23 -5,-5l0,-15c0,-2.77 2.23,-5 5,-5z" id="rect16394" stroke-miterlimit="4" stroke-linecap="square" stroke-width="1.5" stroke="#000000" fill="none"/>
   <path d="m331.14065,96.17187l15,0c2.77,0 5,2.23 5,5l0,15c0,2.77 -2.23,5 -5,5l-15,0c-2.77,0 -5,-2.23 -5,-5l0,-15c0,-2.77 2.23,-5 5,-5z" id="rect16396" stroke-miterlimit="4" stroke-linecap="square" stroke-width="1.5" stroke="#000000" fill="none"/>
   <path d="m359.14065,96.17187l37,0c2.77,0 5,2.23 5,5l0,15c0,2.77 -2.23,5 -5,5l-37,0c-2.77,0 -5,-2.23 -5,-5l0,-15c0,-2.77 2.23,-5 5,-5z" id="rect16398" stroke-miterlimit="4" stroke-linecap="square" stroke-width="1.5" stroke="#000000" fill="none"/>
   <path d="m17.14064,124.17187l20,0c2.77,0 5,2.23 5,5l0,15c0,2.77 -2.23,5 -5,5l-20,0c-2.77,0 -5,-2.23 -5,-5l0,-15c0,-2.77 2.23,-5 5,-5z" id="rect16400" stroke-miterlimit="4" stroke-linecap="square" stroke-width="1.5" stroke="#000000" fill="none"/>
   <path d="m81.14065,124.17187l18,0c2.77,0 5,2.23 5,5l0,15c0,2.77 -2.23,5 -5,5l-18,0c-2.77,0 -5,-2.23 -5,-5l0,-15c0,-2.77 2.23,-5 5,-5z" id="rect16402" stroke-miterlimit="4" stroke-linecap="square" stroke-width="1.5" stroke="#000000" fill="none"/>
   <path d="m112.14065,124.17187l18,0c2.77,0 5,2.23 5,5l0,15c0,2.77 -2.23,5 -5,5l-18,0c-2.77,0 -5,-2.23 -5,-5l0,-15c0,-2.77 2.23,-5 5,-5z" id="rect16404" stroke-miterlimit="4" stroke-linecap="square" stroke-width="1.5" stroke="#000000" fill="none"/>
   <path d="m143.14065,124.17187l130,0c2.77,0 5,2.23 5,5l0,15c0,2.77 -2.23,5 -5,5l-130,0c-2.77,0 -5,-2.23 -5,-5l0,-15c0,-2.77 2.23,-5 5,-5z" id="rect16406" stroke-miterlimit="4" stroke-linecap="square" stroke-width="1.5" stroke="#000000" fill="none"/>
   <path d="m286.14065,124.17187l18,0c2.77,0 5,2.23 5,5l0,15c0,2.77 -2.23,5 -5,5l-18,0c-2.77,0 -5,-2.23 -5,-5l0,-15c0,-2.77 2.23,-5 5,-5z" id="rect16408" stroke-miterlimit="4" stroke-linecap="square" stroke-width="1.5" stroke="#000000" fill="none"/>
   <path d="m317.14065,124.17187l18,0c2.77,0 5,2.23 5,5l0,15c0,2.77 -2.23,5 -5,5l-18,0c-2.77,0 -5,-2.23 -5,-5l0,-15c0,-2.77 2.23,-5 5,-5z" id="rect16412" stroke-miterlimit="4" stroke-linecap="square" stroke-width="1.5" stroke="#000000" fill="none"/>
   <path d="m348.14065,124.17187l20,0c2.77,0 5,2.23 5,5l0,15c0,2.77 -2.23,5 -5,5l-20,0c-2.77,0 -5,-2.23 -5,-5l0,-15c0,-2.77 2.23,-5 5,-5z" id="rect16414" stroke-miterlimit="4" stroke-linecap="square" stroke-width="1.5" stroke="#000000" fill="none"/>
   <path d="m381.14065,124.17187l15,0c2.77,0 5,2.23 5,5l0,15c0,2.77 -2.23,5 -5,5l-15,0c-2.77,0 -5,-2.23 -5,-5l0,-15c0,-2.77 2.23,-5 5,-5z" id="rect17398" stroke-miterlimit="4" stroke-linecap="square" stroke-width="1.5" stroke="#000000" fill="none"/>
   <path d="m409.14065,124.17187l15,0c2.77,0 5,2.23 5,5l0,15c0,2.77 -2.23,5 -5,5l-15,0c-2.77,0 -5,-2.23 -5,-5l0,-15c0,-2.77 2.23,-5 5,-5z" id="rect17400" stroke-miterlimit="4" stroke-linecap="square" stroke-width="1.5" stroke="#000000" fill="none"/>
   <path d="m409.14065,96.17187l15,0c2.77,0 5,2.23 5,5l0,15c0,2.77 -2.23,5 -5,5l-15,0c-2.77,0 -5,-2.23 -5,-5l0,-15c0,-2.77 2.23,-5 5,-5z" id="rect17396" stroke-miterlimit="4" stroke-linecap="square" stroke-width="1.5" stroke="#000000" fill="none"/>
   <path d="m50.14064,124.17187l18,0c2.77,0 5,2.23 5,5l0,15c0,2.77 -2.23,5 -5,5l-18,0c-2.77,0 -5,-2.23 -5,-5l0,-15c0,-2.77 2.23,-5 5,-5z" id="rect17810" stroke-miterlimit="4" stroke-linecap="square" stroke-width="1.5" stroke="#000000" fill="none"/>
  </g>
 </g>
</svg>